<?xml version="1.0" encoding="utf-8"?>
<!-- Generator: Adobe Illustrator 21.1.0, SVG Export Plug-In . SVG Version: 6.00 Build 0)  -->
<svg version="1.1" id="Layer_1" xmlns="http://www.w3.org/2000/svg" xmlns:xlink="http://www.w3.org/1999/xlink" x="0px" y="0px"
	 viewBox="0 0 150 50" style="enable-background:new 0 0 150 50;" xml:space="preserve">
<style type="text/css">
	.st0{fill:#231F20;enable-background:new    ;}
</style>
<g>
	<path d="M142.3,1.2c0,15.9,0,31.7,0,47.6c-44.2,0-88.4,0-132.7,0c0-15.8,0-31.7,0-47.6C53.9,1.2,98.1,1.2,142.3,1.2z M140.5,3.6
		c-43,0-85.9,0-128.9,0c0,14.3,0,28.5,0,42.7c43,0,85.9,0,128.9,0C140.5,32.1,140.5,17.9,140.5,3.6z"/>
	<path d="M60.7,25.6c5.3,0,10.7,0,16,0c0,1.1,0,2.2,0,3.4c-0.5,0.1-0.9,0.1-1.4,0.2c-1.2,0.2-1.8,0.9-1.8,2.1c0,2.7,0,5.5-0.1,8.2
		c0,0.1,0,0.2,0,0.3c-0.1,0-0.1,0-0.2,0C72.2,40,71.1,40,70,40.2c-0.9,0.1-1.8,0.4-2.7,0.6c-0.9,0.2-1.8,0.4-2.7,0.6
		c-2.2,0.6-4.5,0.5-6.8,0.4c-1.1-0.1-2.3-0.3-3.4-0.6c-1-0.3-2-0.6-3-1.2c-1.2-0.7-2.3-1.5-3.2-2.5c-1.7-1.9-2.5-4.2-3-6.6
		c-0.6-3-0.6-6-0.3-9.1c0.2-1.7,0.5-3.4,1.1-5.1c0.6-1.6,1.4-3,2.5-4.3c0.6-0.7,1.4-1.2,2.2-1.7c0.8-0.5,1.7-0.9,2.6-1.2
		c0.7-0.2,1.5-0.4,2.2-0.6c3.1-0.7,6.3-0.6,9.5-0.4c0.8,0.1,1.6,0.2,2.3,0.3c0.7,0.1,1.3,0.2,2,0.3c1.1,0.2,2.3,0.4,3.4,0.6
		c0.1,3,0.1,6.1,0.2,9.2c-1-0.1-1.9-0.1-2.9-0.2c-0.4,0-0.8,0-1.3,0c-0.2,0-0.3-0.1-0.3-0.3c-0.2-1.2-0.5-2.3-0.8-3.5
		c-0.2-0.7-0.6-1.4-1.1-1.9c-0.5-0.5-1.2-0.7-1.9-0.8c-1.5-0.3-3-0.3-4.5-0.1c-1.2,0.1-2.3,0.6-3.3,1.3c-1.5,1.1-2.3,2.7-2.9,4.4
		c-0.5,1.7-0.7,3.5-0.8,5.3c-0.1,2-0.1,3.9,0.1,5.9c0.2,1.9,0.6,3.7,1.5,5.4c0.5,0.9,1.2,1.8,2.1,2.4c1.5,1.1,3.2,1.3,5,1.2
		c0.7-0.1,1.4-0.2,2-0.4c0.7-0.2,1.4-0.5,1.8-1.1c0.2-0.2,0.3-0.5,0.3-0.8c0-1.7,0-3.4,0-5.1c0-0.9-0.4-1.3-1.4-1.4
		c-1.1-0.1-2.2-0.1-3.4-0.2c-0.1,0-0.2,0-0.4,0C60.7,27.8,60.7,26.7,60.7,25.6z"/>
	<path d="M32.7,37.8c0,1.2,0,2.4,0,3.7c-5.1,0-10.2,0-15.3,0c0-1.2,0-2.4,0-3.7c0.6-0.1,1.3-0.1,1.9-0.2c1.1-0.2,1.5-0.5,1.5-1.7
		c0-2.3,0-4.6,0-6.9c0-4.9,0-9.7,0-14.6c0-0.2,0-0.4,0-0.5c0-0.7-0.4-1.1-1.1-1.3c-0.3-0.1-0.6-0.1-1-0.1c-0.3,0-0.5-0.1-0.8-0.1
		c-0.3,0-0.5,0-0.8,0c0-1.2,0-2.3,0-3.5c0.3,0,0.6,0,0.8,0c4.5,0,8.9,0,13.4,0c1.9,0,3.8,0,5.6,0.2c1.2,0.1,2.4,0.5,3.4,1.2
		c1.2,0.8,1.9,2,2.3,3.4c0.5,1.9,0.5,3.9,0.4,5.9c-0.1,1.4-0.4,2.7-1,4c-0.5,1-1.2,1.9-2.1,2.6c-0.7,0.5-1.5,1-2.3,1.2
		c-0.8,0.2-1.6,0.5-2.4,0.6c-1.3,0.2-2.5,0.3-3.8,0.4c-0.6,0-1.2,0.1-1.8,0.1c-0.3,0-0.7-0.1-1-0.1c0,0.1,0,0.2,0,0.3
		c0,2.4,0,4.8,0,7.2c0,0.3,0,0.7,0.2,1c0.2,0.5,0.7,0.6,1.1,0.7c0.3,0,0.7,0.1,1,0.1C31.6,37.8,32.1,37.8,32.7,37.8z M28.7,13.4
		c0,4.1,0,8.1,0,12.2c0.6-0.1,1.1-0.1,1.6-0.2c0.6-0.1,1.2-0.3,1.8-0.6c1-0.5,1.6-1.3,2-2.3c0.8-2,0.9-4.2,0.4-6.3
		c-0.3-1.4-1.2-2.2-2.5-2.5C30.9,13.4,29.8,13.4,28.7,13.4z"/>
	<path d="M119.2,27.6c0-1.4,0-2.7,0-4c0,0,0.1,0,0.1,0c0.9,0,1.8,0.1,2.7,0.1c0.7,0,1.3,0,1.9-0.3c0.7-0.3,1.2-0.9,1.5-1.7
		c0.6-1.8,0.7-3.5,0.2-5.3c-0.2-0.8-0.8-1.3-1.6-1.5c-0.5-0.1-1-0.1-1.5,0c-0.8,0.2-1.3,0.7-1.4,1.4c-0.2,0.6-0.3,1.3-0.2,2
		c0,1-0.6,2.2-1.8,2.5c-0.2,0.1-0.5,0.1-0.7,0.1c-0.7,0-1.4,0-2,0c-1.4,0-2.2-1-2.1-2.3c0.1-1.3,0.3-2.5,0.9-3.7
		c0.5-0.9,1.1-1.7,2-2.3c0.6-0.4,1.3-0.8,2.1-1c0.6-0.1,1.1-0.2,1.7-0.3c1.4-0.3,2.8-0.2,4.2-0.1c0.8,0,1.5,0.1,2.3,0.3
		c0.9,0.2,1.8,0.5,2.6,0.9c2.3,1.1,3.5,3,3.8,5.5c0.2,1.3,0.1,2.6-0.3,3.9c-0.4,1.2-1.1,2.2-2.1,2.9c-0.3,0.2-0.5,0.4-0.8,0.6
		c0.3,0.2,0.6,0.4,0.9,0.5c1.5,0.8,2.3,2.1,2.7,3.8c0.5,2.4,0.5,4.7-0.4,7c-0.5,1.1-1.2,2.1-2.1,2.9c-0.7,0.6-1.5,1-2.3,1.3
		c-0.7,0.3-1.5,0.5-2.3,0.6c-2,0.4-3.9,0.3-5.9,0.1c-0.9-0.1-1.7-0.3-2.5-0.6c-1.6-0.5-3-1.4-3.8-2.9c-0.5-0.9-0.8-1.9-0.9-2.9
		c-0.1-0.8-0.1-1.6,0.1-2.4c0.2-0.8,0.9-1.3,1.6-1.3c1.1,0,2.2,0,3.3,0c0.9,0,1.4,0.5,1.5,1.4c0.1,0.7,0.1,1.5,0.2,2.2
		c0.1,0.8,0.2,1.6,0.7,2.2c0.3,0.4,0.7,0.7,1.1,0.8c0.6,0.1,1.2,0.1,1.7,0c0.8-0.2,1.3-0.8,1.6-1.5c0.3-0.8,0.5-1.6,0.5-2.5
		c0.1-1.4,0.1-2.8-0.3-4.1c-0.2-0.8-0.6-1.4-1.3-1.9c-0.4-0.3-0.9-0.5-1.4-0.5c-1.3,0-2.5,0.1-3.8,0.1
		C119.5,27.5,119.4,27.6,119.2,27.6z"/>
	<path d="M108.3,11.7c0,0.2,0,0.3,0,0.5c0,7.5,0,15.1,0,22.6c0,0.5,0,1,0.1,1.5c0.1,0.6,0.5,1,1.1,1.1c1.1,0.3,2.2,0.2,3.3,0.3
		c0.1,0,0.3,0,0.4,0c0,1.2,0,2.4,0,3.6c-6.1,0-12.3,0-18.4,0c0-1.1,0-2.3,0-3.5c0.5,0,1.1,0.1,1.6,0c1.1-0.2,2.2-0.3,3.3-0.6
		c0.9-0.2,1.3-0.9,1.4-1.8c0-0.2,0-0.5,0-0.7c0-5.6,0-11.1,0-16.7c0-0.1,0-0.2,0-0.4c-2.4,1.3-4.8,2.6-7.3,3.9c0-0.1,0-0.2,0-0.3
		c0-1.2,0-2.5,0-3.7c0-0.4,0.1-0.5,0.5-0.6c0.5-0.2,1-0.3,1.4-0.5c0.7-0.3,1.4-0.7,2-1c0.5-0.3,1.1-0.6,1.6-1
		c0.8-0.6,1.5-1.3,2.2-1.9c0.2-0.2,0.4-0.5,0.7-0.7c0.1-0.1,0.2-0.1,0.3-0.1c1.9,0,3.8,0,5.7,0C108.2,11.7,108.2,11.7,108.3,11.7z"
		/>
	<path d="M80.9,32.5c0-2.4,0-4.7,0-7c4,0,8,0,12,0c0,2.3,0,4.7,0,7C88.9,32.5,84.9,32.5,80.9,32.5z"/>
</g>
<path class="st0" d="M0,0"/>
</svg>
